<svg version="1.1" xmlns="http://www.w3.org/2000/svg" xmlns:xlink="http://www.w3.org/1999/xlink" width="2199.36937" height="1629.89762" viewBox="0,0,2199.36937,1629.89762"><g transform="translate(859.68468,634.94881)"><g data-paper-data="{&quot;isPaintingLayer&quot;:true}" fill-rule="nonzero" stroke="none" stroke-linecap="butt" stroke-linejoin="miter" stroke-miterlimit="10" stroke-dasharray="" stroke-dashoffset="0" style="mix-blend-mode: normal"><path d="M-121.16664,-89.59759c0,-1.19662 1.11929,-2.16667 2.5,-2.16667c1.38071,0 2.5,0.97005 2.5,2.16667c0,1.19662 -1.11929,2.16667 -2.5,2.16667c-1.38071,0 -2.5,-0.97005 -2.5,-2.16667z" fill="none" stroke-width="0.5"/><path d="M596.50677,449.3371c0,-1.38071 1.11929,-2.5 2.5,-2.5c1.38071,0 2.5,1.11929 2.5,2.5c0,1.38071 -1.11929,2.5 -2.5,2.5c-1.38071,0 -2.5,-1.11929 -2.5,-2.5z" fill="none" stroke-width="0.5"/><path d="M-859.68468,994.94881v-1629.89762h2199.36937v1629.89762z" fill="#9966ff" stroke-width="0"/></g></g></svg>