<svg version="1.1" xmlns="http://www.w3.org/2000/svg" xmlns:xlink="http://www.w3.org/1999/xlink" width="85.52683" height="173.57432" viewBox="0,0,85.52683,173.57432"><g transform="translate(-193.37455,-50.54126)"><g data-paper-data="{&quot;isPaintingLayer&quot;:true}" fill-rule="nonzero" stroke-linejoin="miter" stroke-miterlimit="10" stroke-dasharray="" stroke-dashoffset="0" style="mix-blend-mode: normal"><path d="M205.78698,220.04427v-100.25662h5.89504v100.25662z" fill="#cccccc" stroke="#5d5d5d" stroke-width="1.5" stroke-linecap="butt"/><path d="M194.12456,223.36558v-11h30v11z" fill="#cccccc" stroke="#5d5d5d" stroke-width="1.5" stroke-linecap="butt"/><path d="M206.02413,132.95853l0,-22.58518c6.03288,-4.20958 10.07458,-10.9025 10.07458,-20.0403c0,-9.1378 -4.0417,-15.83072 -10.07458,-20.0403l0,-16.65832l16.94094,10.17948c0.04985,0.37213 0.11474,0.74242 0.19645,1.11043c1.98136,8.92366 12.66955,18.32064 20.43981,20.43981c6.03505,1.64592 8.89761,0.4542 12.68819,-1.52623l19.08598,11.46839l-9.63323,5.23007c-7.32535,-3.5353 -15.37886,-4.22161 -22.53744,0.55078c-4.1524,2.76827 -7.72564,6.71664 -9.95749,11.18034c-1.13026,2.26051 -1.94837,4.71694 -2.44468,7.23829z" fill="#35ff00" stroke="#2ad000" stroke-width="3.5" stroke-linecap="round"/></g></g></svg>