<svg version="1.1" xmlns="http://www.w3.org/2000/svg" xmlns:xlink="http://www.w3.org/1999/xlink" width="85.52686" height="173.57432" viewBox="0,0,85.52686,173.57432"><g transform="translate(-193.37451,-50.54126)"><g data-paper-data="{&quot;isPaintingLayer&quot;:true}" fill-rule="nonzero" stroke-linejoin="miter" stroke-miterlimit="10" stroke-dasharray="" stroke-dashoffset="0" style="mix-blend-mode: normal"><path d="M205.78694,220.04427v-100.25662h5.89504v100.25662z" fill="#cccccc" stroke="#5d5d5d" stroke-width="1.5" stroke-linecap="butt"/><path d="M206.02412,132.95853v-23.60723c0.17368,-0.11624 0.34552,-0.23509 0.5154,-0.35662c0.07423,-0.0531 8.19691,-12.12511 8.27627,-12.47617c1.10045,-4.86773 1.84342,-10.05305 0.86469,-14.9467c-1.30341,-6.51706 -5.18271,-9.55746 -9.65636,-12.66774v-15.26963l19.43597,11.67869c2.54594,6.48238 7.21522,11.48297 13.94706,13.78871c2.7698,1.32785 5.86322,2.17705 9.21251,2.41209c1.2028,0.08441 2.42104,0.0448 3.63844,-0.0984l23.11738,13.89078l-12.58674,6.83359c-15.2705,-7.28673 -33.77127,2.47929 -36.04167,19.56774z" fill="#ff0000" stroke="#d10000" stroke-width="3.5" stroke-linecap="round"/><path d="M194.12452,223.36558v-11h30v11z" fill="#cccccc" stroke="#5d5d5d" stroke-width="1.5" stroke-linecap="butt"/></g></g></svg>