<svg version="1.1" xmlns="http://www.w3.org/2000/svg" xmlns:xlink="http://www.w3.org/1999/xlink" width="39.02398" height="39.03251" viewBox="0,0,39.02398,39.03251"><g transform="translate(-220.48801,-160.48375)"><g data-paper-data="{&quot;isPaintingLayer&quot;:true}" fill-rule="nonzero" stroke-linejoin="miter" stroke-miterlimit="10" stroke-dasharray="" stroke-dashoffset="0" style="mix-blend-mode: normal"><path d="M228.12295,167.98375l-0.13494,23.34934" fill="#1d00ff" stroke="#ff0000" stroke-width="15" stroke-linecap="round"/><path d="M252.01199,168.4188l-0.13494,23.34934" fill="#1d00ff" stroke="#ff0000" stroke-width="15" stroke-linecap="round"/><path d="M229.07734,191.96037l21.99525,0.05589" fill="#1d00ff" stroke="#ff0000" stroke-width="15" stroke-linecap="round"/><path d="M228.27271,168.04334l21.99525,0.05589" fill="#1d00ff" stroke="#ff0000" stroke-width="15" stroke-linecap="round"/><path d="M254.04964,180c0,7.59775 -6.29024,13.75695 -14.04964,13.75695c-7.7594,0 -14.04964,-6.15919 -14.04964,-13.75695c0,-7.59775 6.29024,-13.75695 14.04964,-13.75695c7.7594,0 14.04964,6.15919 14.04964,13.75695z" fill="#ffffff" stroke="#ff0000" stroke-width="0" stroke-linecap="butt"/><path d="M242.90531,180.31746c0,3.79341 -3.16979,6.86856 -7.07991,6.86856c-3.91012,0 -7.07991,-3.07516 -7.07991,-6.86856c0,-3.79341 3.16979,-6.86856 7.07991,-6.86856c3.91012,0 7.07991,3.07516 7.07991,6.86856z" fill="#ff0000" stroke="#ff0000" stroke-width="0" stroke-linecap="butt"/><path d="M236.13926,180.39682c0,1.42274 -1.13544,2.57611 -2.53608,2.57611c-1.40064,0 -2.53608,-1.15336 -2.53608,-2.57611c0,-1.42274 1.13544,-2.57611 2.53608,-2.57611c1.40064,0 2.53608,1.15336 2.53608,2.57611z" fill="#ffffff" stroke="#ff0000" stroke-width="0" stroke-linecap="butt"/><path d="M241.4375,196.875c-2.07828,0 -3.8604,-1.26798 -4.61496,-3.07253c-1.17689,0.02245 -2.34952,-0.05961 -3.4996,-0.33111c-1.38187,-0.32622 -8.24639,-1.62324 -8.64288,-3.03295l-1.07992,-2.57826c-1.6517,-0.81628 -2.78764,-2.51806 -2.78764,-4.48515c0,-2.19927 1.41992,-4.0669 3.39302,-4.73616c-1.22469,-0.91134 -2.01802,-2.36994 -2.01802,-4.01384c0,-2.76142 2.23858,-5 5,-5c0.03763,0 0.07517,0.00042 0.1126,0.00124c0.47936,-1.13943 0.79677,-2.44191 1.61812,-3.23705c0.15393,-0.14902 0.32557,-0.28023 0.51928,-0.38919c0.21702,-0.12207 0.47,-0.22451 0.75003,-0.3102c0.53054,-0.19825 1.10378,-0.30897 1.70215,-0.31457c2.14843,-0.21711 4.72382,0.00852 5.63401,-0.00023c8.14001,-0.07823 14.90733,3.12491 17.01453,11.39609c0.43178,1.69484 2.10809,3.71048 1.46534,5.59213c-0.6836,2.00124 -1.6428,5.39768 -3.45568,7.15019c-0.53608,1.44974 -1.32447,2.93897 -2.62432,3.70873c-1.04045,0.61615 -2.38815,-0.06596 -3.61888,-0.19745c-0.51939,2.20725 -2.50141,3.85031 -4.86719,3.85031zM238.4375,183.75c0.47562,-0.25309 -0.41264,-3.83401 -0.5,-4.5c-0.27874,-2.12505 0.98968,-2.46917 2.26869,-3.54834c-0.77756,-0.28087 -1.45954,-0.46143 -1.86326,-0.42802c-0.91944,0.0761 -3.0224,0.23353 -4.96475,0.21386c0.35609,1.34271 -0.10666,2.35686 -2.28242,2.25639c-0.5906,0.7391 -1.38648,1.30698 -2.30127,1.61727c0.98016,0.72938 1.68402,1.8093 1.92602,3.0542c2.63552,0.87033 5.74614,2.38339 7.717,1.33464z" fill="#ff0000" stroke="none" stroke-width="0.5" stroke-linecap="butt"/><path d="M233.6875,180.625c0,-0.27614 0.22386,-0.5 0.5,-0.5c0.27614,0 0.5,0.22386 0.5,0.5c0,0.27614 -0.22386,0.5 -0.5,0.5c-0.27614,0 -0.5,-0.22386 -0.5,-0.5z" fill="#000000" stroke="none" stroke-width="0.5" stroke-linecap="butt"/></g></g></svg>