<svg version="1.1" xmlns="http://www.w3.org/2000/svg" xmlns:xlink="http://www.w3.org/1999/xlink" width="39.02398" height="39.03251" viewBox="0,0,39.02398,39.03251"><g transform="translate(-220.48801,-160.48375)"><g data-paper-data="{&quot;isPaintingLayer&quot;:true}" fill-rule="nonzero" stroke-linejoin="miter" stroke-miterlimit="10" stroke-dasharray="" stroke-dashoffset="0" style="mix-blend-mode: normal"><path d="M228.12295,167.98375l-0.13494,23.34934" fill="none" stroke="#ff0000" stroke-width="15" stroke-linecap="round"/><path d="M252.01199,168.4188l-0.13494,23.34934" fill="none" stroke="#ff0000" stroke-width="15" stroke-linecap="round"/><path d="M229.07734,191.96037l21.99525,0.05589" fill="none" stroke="#ff0000" stroke-width="15" stroke-linecap="round"/><path d="M228.27271,168.04334l21.99525,0.05589" fill="none" stroke="#ff0000" stroke-width="15" stroke-linecap="round"/><path d="M254.04964,180c0,7.59775 -6.29024,13.75695 -14.04964,13.75695c-7.7594,0 -14.04964,-6.15919 -14.04964,-13.75695c0,-7.59775 6.29024,-13.75695 14.04964,-13.75695c7.7594,0 14.04964,6.15919 14.04964,13.75695z" fill="#ffffff" stroke="#ff0000" stroke-width="0" stroke-linecap="butt"/><path d="M243.44498,176.2381c0,3.79341 -3.16979,6.86856 -7.07991,6.86856c-3.91012,0 -7.07991,-3.07516 -7.07991,-6.86856c0,-3.79341 3.16979,-6.86856 7.07991,-6.86856c3.91012,0 7.07991,3.07516 7.07991,6.86856z" fill="#ff0000" stroke="#ff0000" stroke-width="0" stroke-linecap="butt"/><path d="M236.15512,174.25396c0,1.42274 -1.13544,2.57611 -2.53608,2.57611c-1.40064,0 -2.53608,-1.15336 -2.53608,-2.57611c0,-1.42274 1.13544,-2.57611 2.53608,-2.57611c1.40064,0 2.53608,1.15336 2.53608,2.57611z" fill="#ffffff" stroke="#ff0000" stroke-width="0" stroke-linecap="butt"/><path d="M224.87994,167.81415c0.47844,-2.72712 8.11828,-7.30163 9.83581,-4.29595c0.56231,0.33187 1.03046,0.80631 1.35471,1.37359c0.44952,-0.74037 1.02098,-1.42073 1.61703,-2.01678c1.06246,-1.06246 6.87386,-0.68949 7.66267,0.69092l1.12743,1.97301c0.27672,-0.32818 0.51382,-0.55931 0.66481,-0.60656c1.60299,-0.5016 3.52884,-1.03067 5.03115,-0.27951c5.43121,2.71561 1.33749,6.3306 1.38893,9.81026c0.02569,1.7381 2.11087,2.43235 2.27697,4.50856c0.18167,2.27092 -3.66512,12.45204 -5.24144,14.56385c-1.19167,1.59649 -4.15079,2.65152 -6.03553,2.71447c-8.53608,0.2851 -14.541,-1.12814 -18.71955,-8.74008c-0.68492,-1.24769 -4.26147,-5.50515 -3.52288,-6.98233c-0.00503,-0.09189 -0.00758,-0.18445 -0.00758,-0.2776c0,-1.98122 1.15232,-3.6933 2.8233,-4.5026c-1.74144,-1.74562 -0.67992,-5.51611 -0.25586,-7.93325zM233.04418,170.49296c-0.19466,0.06923 -1.42472,3.95149 -2.81751,5.62673c0.07868,0.07923 0.15653,0.16114 0.23346,0.2452c0.62573,0.50758 1.12643,1.16327 1.44872,1.91371c0.36379,0.55065 0.66395,1.04494 0.87579,1.36034c0.13755,0.20478 0.0944,0.70129 0.33739,0.65869c2.08797,-0.36607 2.84378,0.01639 5.00952,0.28214c0.78093,0.09583 1.44732,-5.9368 1.48121,-6.41187c0.05467,-0.76632 0.20439,-1.33897 0.42396,-1.78817c-1.89799,-0.56916 -3.66578,-1.67353 -4.45086,-3.1056c-0.63733,0.69985 -1.53596,1.15754 -2.54168,1.21884z" fill="#ff0000" stroke="none" stroke-width="0.5" stroke-linecap="butt"/><path d="M233.0625,174.5c0,-0.27614 0.22386,-0.5 0.5,-0.5c0.27614,0 0.5,0.22386 0.5,0.5c0,0.27614 -0.22386,0.5 -0.5,0.5c-0.27614,0 -0.5,-0.22386 -0.5,-0.5z" fill="#000000" stroke="none" stroke-width="0.5" stroke-linecap="butt"/></g></g></svg>