<svg version="1.1" xmlns="http://www.w3.org/2000/svg" xmlns:xlink="http://www.w3.org/1999/xlink" width="599.0991" height="466.96697" viewBox="0,0,599.0991,466.96697"><defs><radialGradient cx="373.16425" cy="138.92884" r="76.79804" gradientUnits="userSpaceOnUse" id="color-1"><stop offset="0" stop-color="#fffe91"/><stop offset="1" stop-color="#ffde24"/></radialGradient><radialGradient cx="373.16425" cy="138.92884" r="142.00359" gradientUnits="userSpaceOnUse" id="color-2"><stop offset="0" stop-color="#ffde24"/><stop offset="1" stop-color="#ffde24" stop-opacity="0"/></radialGradient></defs><g transform="translate(59.54955,53.48348)"><g data-paper-data="{&quot;isPaintingLayer&quot;:true}" fill-rule="nonzero" stroke="none" stroke-width="0" stroke-linecap="butt" stroke-linejoin="miter" stroke-miterlimit="10" stroke-dasharray="" stroke-dashoffset="0" style="mix-blend-mode: normal"><path d="M-59.54955,413.48349v-466.96697h599.0991v466.96697z" fill="#150050"/><g><path d="M296.36621,138.92884c0,-42.41439 34.38365,-76.79804 76.79804,-76.79804c42.41439,0 76.79804,34.38365 76.79804,76.79804c0,42.41439 -34.38365,76.79804 -76.79804,76.79804c-42.41439,0 -76.79804,-34.38365 -76.79804,-76.79804z" fill="url(#color-1)"/><path d="M231.16067,138.92884c0,-78.42641 63.57717,-142.00359 142.00359,-142.00359c78.42641,0 142.00359,63.57717 142.00359,142.00359c0,78.42641 -63.57717,142.00359 -142.00359,142.00359c-78.42641,0 -142.00359,-63.57717 -142.00359,-142.00359z" fill="url(#color-2)"/></g></g></g></svg>