<svg version="1.1" xmlns="http://www.w3.org/2000/svg" xmlns:xlink="http://www.w3.org/1999/xlink" width="39.02398" height="39.03251" viewBox="0,0,39.02398,39.03251"><g transform="translate(-220.48801,-160.48375)"><g data-paper-data="{&quot;isPaintingLayer&quot;:true}" fill-rule="nonzero" stroke-linejoin="miter" stroke-miterlimit="10" stroke-dasharray="" stroke-dashoffset="0" style="mix-blend-mode: normal"><path d="M228.12295,167.98375l-0.13494,23.34934" fill="none" stroke="#ff0000" stroke-width="15" stroke-linecap="round"/><path d="M252.01199,168.4188l-0.13494,23.34934" fill="none" stroke="#ff0000" stroke-width="15" stroke-linecap="round"/><path d="M229.07734,191.96037l21.99525,0.05589" fill="none" stroke="#ff0000" stroke-width="15" stroke-linecap="round"/><path d="M228.27271,168.04334l21.99525,0.05589" fill="none" stroke="#ff0000" stroke-width="15" stroke-linecap="round"/><path d="M254.04964,180c0,7.59775 -6.29024,13.75695 -14.04964,13.75695c-7.7594,0 -14.04964,-6.15919 -14.04964,-13.75695c0,-7.59775 6.29024,-13.75695 14.04964,-13.75695c7.7594,0 14.04964,6.15919 14.04964,13.75695z" fill="#ffffff" stroke="#ff0000" stroke-width="0" stroke-linecap="butt"/><path d="M250.77833,179.69842c0,3.79341 -3.16979,6.86856 -7.07991,6.86856c-3.91012,0 -7.07991,-3.07516 -7.07991,-6.86856c0,-3.79341 3.16979,-6.86856 7.07991,-6.86856c3.91012,0 7.07991,3.07516 7.07991,6.86856z" fill="#ff0000" stroke="#ff0000" stroke-width="0" stroke-linecap="butt"/><path d="M248.29798,179.88889c0,1.42274 -1.13544,2.57611 -2.53608,2.57611c-1.40064,0 -2.53608,-1.15336 -2.53608,-2.57611c0,-1.42274 1.13544,-2.57611 2.53608,-2.57611c1.40064,0 2.53608,1.15336 2.53608,2.57611z" fill="#ffffff" stroke="#ff0000" stroke-width="0" stroke-linecap="butt"/><path d="M249.18992,176.3588l-0.23376,-0.05844l-0.08649,-0.04613l-0.09774,-0.00752l-0.36512,-0.12171h-0.34431l-0.38988,-0.09747l-0.3579,-0.02753h-0.12722l-0.24157,-0.06039l-0.24872,0.01184l-0.38226,-0.07645h-6.87051l-0.12019,0.08013l-0.05741,0.0205l-0.0431,0.0431l-0.36109,0.21666l-0.17514,0.17514v4.0317l0.14082,0.56328l0.325,0.86667l0.00539,0.04718l0.02549,0.04006l0.30461,0.91384l0.32102,0.58854l0.15508,0.15508l0.02754,0.00551l0.03855,0.06058l0.04926,0.04926l0.16066,0.26777h1.94657l0.38988,0.09747l0.40069,0.03082l1.125,0.375l1.08703,0.69175l0.0571,0.2855l0.2528,0.14446h0.15681l1.11512,-0.37171l0.05553,-0.00427l0.04824,-0.02783l0.875,-0.25l0.04274,-0.00142l0.03773,-0.02012l0.3354,-0.08385l0.12742,-0.05097l0.13178,-0.14495l0.16903,-0.11268l0.22014,-0.22014l0.00087,-0.00262l0.17927,-0.28172l0.11231,-0.31447l0.06429,-0.09643l0.01913,-0.05739l0.09661,-0.15181l0.0251,-0.11296v-2.06966c0,-0.42612 0.10661,-0.82733 0.29461,-1.17843l0.01789,-0.07157l0.03296,-0.01883c0.12216,-0.20699 0.2733,-0.39484 0.44784,-0.55797l-0.12321,-0.49286l-0.0832,-0.16641l-0.02438,-0.01393l-0.01742,-0.06966l-0.03115,-0.06231l-0.1,-0.45l-0.07705,-0.1541l-0.02438,-0.01393l-0.01742,-0.06966l-0.03115,-0.06231l-0.12461,-0.56075l-0.13932,-0.55728v-0.06966l-0.01558,-0.07009l0.01558,-0.02336v-0.1668zM254.3125,183.71188l0.01558,0.02336l-0.01558,0.07009v0.06966l-0.13932,0.55728l-0.12461,0.56075l-0.03115,0.06231l-0.01742,0.06966l-0.02438,0.01393l-0.09759,0.19519l-0.06882,0.20645l-0.17927,0.28172l-0.11231,0.31447l-0.06429,0.09643l-0.01913,0.05739l-0.17927,0.28172l-0.11231,0.31447l-0.25,0.375l-0.18425,0.1675l-0.12811,0.21352l-0.625,0.625l-0.21352,0.12811l-0.1675,0.18425l-0.16903,0.11268l-0.07496,0.07496l-0.43142,0.25885l-0.23996,0.1733l0.52861,0.92508l-1.25,2.1875l-1.25,0.3125h-0.71931l-0.36512,0.12171l-0.19772,0.01521l-0.18186,0.07907l-0.43628,0.07271l-0.83437,0.37083l-0.24791,0.04338l-0.22511,0.11255l-0.95376,0.21195l-0.83575,0.31341l-0.17655,0.02018l-0.15894,0.07947l-1.125,0.25l-0.04976,-0.00131l-0.04535,0.02052l-1.375,0.25l-0.08824,-0.00575l-0.08289,0.03079l-2.18229,0.24248l-1.4328,0.2388l-0.05214,-0.00417l-0.04878,0.01888l-1,0.125l-0.15683,-0.01901l-0.15326,0.03831h-2.21188l-0.02336,0.01558l-0.07009,-0.01558h-0.06966l-0.55728,-0.13932l-0.56075,-0.12461l-0.06231,-0.03115l-0.06966,-0.01742l-0.01393,-0.02438l-0.01109,-0.00555l-0.52845,-0.21138l-0.03922,-0.02832l-0.04765,-0.00834l-1.99673,-0.88743l-0.35322,-0.07064l-0.33093,-0.15676l-0.42878,-0.10719l-0.07515,-0.13151l-0.32958,-0.15612l-0.33652,-1.00957l-0.50875,-0.89031l0.13388,-0.23429l-0.08533,-0.256l0.67347,-0.77325l0.52798,-0.92396v-0.02438l-0.01558,-0.02336l0.01558,-0.07009v-0.06966l0.125,-0.5v-0.46188l-0.01558,-0.02336l0.01558,-0.07009v-0.06623l-1.01777,-0.61066l-0.25966,-0.25966l-0.02754,-0.00551l-0.03855,-0.06058l-0.04926,-0.04926l-0.29554,-0.49257l-0.3084,-0.48463l-0.02203,-0.06609l-0.03694,-0.06157l0.00739,-0.02709l-0.57342,-1.72025l-0.02561,-0.33294l-0.06953,-0.22441l-0.84565,-0.48323l-0.09488,-0.3795l-0.08933,-0.07993l0.03082,-0.15411l-0.15911,-0.63646v-1.125l0.03611,-0.14444l-0.01899,-0.14767l0.25,-2.125l0.0218,-0.05755l-0.00491,-0.06134l0.375,-2.25l0.01272,-0.02926l-0.00175,-0.03186l0.625,-3.25l0.06324,-0.13611l0.00946,-0.14978l0.875,-2.75l0.13531,-0.2192l0.06807,-0.24844l1.125,-2l0.16466,-0.17416l0.10582,-0.21505l1.18687,-1.40267l0.00028,-0.00502l0.01444,-0.01238l0.17341,-0.20493l0.40843,-0.29379l0.382,-0.32743l0.24011,-0.12006l0.01544,-0.01111l0.00494,0.00092l0.59361,-0.2968l0.01393,-0.02438l0.06966,-0.01742l0.06231,-0.03115l0.56075,-0.12461l0.55728,-0.13932h0.06966l0.07009,-0.01558l0.02336,0.01558h0.46188l0.15326,0.03831l0.15683,-0.01901l1,0.125l0.23221,0.08989l0.24827,0.0191l0.75,0.25l0.21007,0.13368l0.2397,0.06742l0.875,0.5l0.14226,0.13634l0.17913,0.0821l0.625,0.5l0.42843,0.56231l0.16017,-0.03737l2.84361,-0.74181l0.22544,-0.0023l0.21388,-0.07129l1.625,-0.125l0.3962,0.06728h0.47767l0.09284,0.09688l0.30357,0.05155l0.38092,0.5617l0.00454,-0.00076l0.5397,0.04318l0.617,0.01624l0.03247,0.03572l0.0952,0.00762l0.77183,0.94612l0.35228,0.38751l0.14858,-0.00691l0.35394,-0.08848h0.875l0.20271,0.05068l0.20829,-0.01666l0.75,0.125l0.83028,0.36099l0.15627,0.00868l0.08097,0.09447l0.1141,0.04961l0.05425,0.14681l0.5892,0.6874l0.75,1.5l0.02301,0.10356l0.06211,0.086l0.5,1.25l0.00377,0.02767l0.01586,0.02299l0.375,1l0.00539,0.04718l0.02549,0.04006l0.22161,0.66482l0.2547,0.18395l0.01099,0.07878l0.15876,0.09526l0.5,0.5l0.20676,0.34461l0.26154,0.30513l0.05539,0.11079l0.16366,0.2455l0.03383,0.09473l0.07354,0.04202l0.13658,0.54632l0.1894,0.53033l-0.02825,0.05651l0.06512,0.2605v0.30776l0.07464,0.29857v1.21188l0.01558,0.02336l-0.01558,0.07009v0.06966l-0.13932,0.55728l-0.12461,0.56075l-0.03115,0.06231l-0.01742,0.06966l-0.02438,0.01393l-0.05205,0.1041l-0.83853,0.97828l-0.09857,0.00548l-0.04898,0.08571l-0.375,0.09375zM234.16598,174.03016l0.05311,-0.08851l-0.04944,0.00154l-0.00743,0.08912z" fill="#ff0000" stroke="none" stroke-width="0.5" stroke-linecap="butt"/><path d="M245.6875,180.125c0,-0.27614 0.22386,-0.5 0.5,-0.5c0.27614,0 0.5,0.22386 0.5,0.5c0,0.27614 -0.22386,0.5 -0.5,0.5c-0.27614,0 -0.5,-0.22386 -0.5,-0.5z" fill="#000000" stroke="none" stroke-width="0.5" stroke-linecap="butt"/></g></g></svg>