<svg version="1.1" xmlns="http://www.w3.org/2000/svg" xmlns:xlink="http://www.w3.org/1999/xlink" width="32.04544" height="32.78429" viewBox="0,0,32.04544,32.78429"><defs><radialGradient cx="238.78807" cy="180.22953" r="12.4559" gradientUnits="userSpaceOnUse" id="color-1"><stop offset="0" stop-color="#ffffff"/><stop offset="1" stop-color="#ffffff" stop-opacity="0"/></radialGradient><linearGradient x1="238.70457" y1="179.82588" x2="254.75002" y2="179.82588" gradientUnits="userSpaceOnUse" id="color-2"><stop offset="0" stop-color="#ffffff"/><stop offset="1" stop-color="#ffffff" stop-opacity="0"/></linearGradient><linearGradient x1="238.75003" y1="179.89385" x2="222.70457" y2="179.89385" gradientUnits="userSpaceOnUse" id="color-3"><stop offset="0" stop-color="#ffffff"/><stop offset="1" stop-color="#ffffff" stop-opacity="0"/></linearGradient><linearGradient x1="238.74834" y1="179.82536" x2="246.45272" y2="193.90012" gradientUnits="userSpaceOnUse" id="color-4"><stop offset="0" stop-color="#ffffff"/><stop offset="1" stop-color="#ffffff" stop-opacity="0"/></linearGradient><linearGradient x1="238.71054" y1="179.89786" x2="231.00617" y2="165.8231" gradientUnits="userSpaceOnUse" id="color-5"><stop offset="0" stop-color="#ffffff"/><stop offset="1" stop-color="#ffffff" stop-opacity="0"/></linearGradient><linearGradient x1="238.68872" y1="179.82536" x2="230.98435" y2="193.90013" gradientUnits="userSpaceOnUse" id="color-6"><stop offset="0" stop-color="#ffffff"/><stop offset="1" stop-color="#ffffff" stop-opacity="0"/></linearGradient><linearGradient x1="238.72652" y1="179.89786" x2="246.4309" y2="165.8231" gradientUnits="userSpaceOnUse" id="color-7"><stop offset="0" stop-color="#ffffff"/><stop offset="1" stop-color="#ffffff" stop-opacity="0"/></linearGradient></defs><g transform="translate(-222.70457,-163.48939)"><g data-paper-data="{&quot;isPaintingLayer&quot;:true}" fill-rule="nonzero" stroke="none" stroke-width="0" stroke-linejoin="miter" stroke-miterlimit="10" stroke-dasharray="" stroke-dashoffset="0" style="mix-blend-mode: normal"><path d="M251.12423,180.22953c0,6.87921 -5.52308,12.4559 -12.33614,12.4559c-6.81306,0 -12.33614,-5.5767 -12.33614,-12.4559c0,-6.87921 5.52308,-12.4559 12.33614,-12.4559c6.81306,0 12.33614,5.5767 12.33614,12.4559z" data-paper-data="{&quot;origPos&quot;:null}" fill="url(#color-1)" stroke-linecap="butt"/><g data-paper-data="{&quot;origPos&quot;:null}" stroke-linecap="round"><path d="M254.75002,184.76916l-16.04545,-5.02802l16,-4.85854" data-paper-data="{&quot;origPos&quot;:null}" fill="url(#color-2)"/><path d="M222.75003,174.95057l16,4.85854l-16.04545,5.02802" data-paper-data="{&quot;origPos&quot;:null,&quot;index&quot;:null}" fill="url(#color-3)"/></g><g data-paper-data="{&quot;origPos&quot;:null,&quot;origRot&quot;:0}" stroke-linecap="round"><path d="M242.11657,196.27369l-3.29389,-16.48902l11.94437,11.70202" data-paper-data="{&quot;origPos&quot;:null}" fill="url(#color-4)"/><path d="M235.36414,163.4894l3.42073,16.36777l-12.11486,-11.66052" data-paper-data="{&quot;origPos&quot;:null,&quot;index&quot;:null}" fill="url(#color-5)"/></g><g data-paper-data="{&quot;origPos&quot;:null,&quot;origRot&quot;:0,&quot;index&quot;:null}" stroke-linecap="round"><path d="M226.67002,191.48669l11.94438,-11.70202l-3.29389,16.48901" data-paper-data="{&quot;origPos&quot;:null}" fill="url(#color-6)"/><path d="M250.76705,168.19666l-12.11486,11.66052l3.42074,-16.36777" data-paper-data="{&quot;origPos&quot;:null,&quot;index&quot;:null}" fill="url(#color-7)"/></g></g></g></svg>