<svg version="1.1" xmlns="http://www.w3.org/2000/svg" xmlns:xlink="http://www.w3.org/1999/xlink" width="1215.79236" height="843.36543" viewBox="0,0,1215.79236,843.36543"><g transform="translate(313.00302,210.02466)"><g data-paper-data="{&quot;isPaintingLayer&quot;:true}" stroke="none" stroke-dasharray="" stroke-dashoffset="0" style="mix-blend-mode: normal"><path d="M-39.5,483v-542h680v542z" fill="#ff4848" fill-rule="nonzero" stroke-width="0" stroke-linecap="butt" stroke-linejoin="miter" stroke-miterlimit="10"/><path d="M720,-148.69601v31.305l-840,657.391h-40zM720,-86.087v31.304l-760,594.783h-40zM720,-23.478v31.304l-680,532.174h-40zM720,39.13v31.305l-600,469.565h-40zM720,101.739v31.304l-520,406.957h-40zM720,164.348v31.304l-440,344.348h-40zM720,226.957v31.304l-360,281.739h-40zM720,289.565v31.305l-280,219.13h-40zM720,352.174v31.304l-200,156.522h-40zM720,414.783v31.304l-120,93.913h-40zM720,477.391v31.305l-40,31.304h-40zM-200,540h-40l920,-720h40zM-240,508.696v-31.305l840,-657.391h40zM-240,446.087v-31.304l760,-594.783h40zM-240,383.478v-31.304l680,-532.174h40zM-240,320.87v-31.305l600,-469.565h40zM-240,258.26099v-31.304l520,-406.957h40zM-240,195.652v-31.304l440,-344.348h40zM-240,133.04298v-31.304l360,-281.739h40zM-240,70.435v-31.305l280,-219.13h40zM-240,7.826v-31.304l200,-156.522h40zM-240,-54.783v-31.304l120,-93.913h40zM-240,-117.391v-31.305l40,-31.304h40z" fill="#ff0000" fill-rule="evenodd" stroke-width="1" stroke-linecap="butt" stroke-linejoin="round" stroke-miterlimit="1.41421"/><path d="M267.39375,-196.32088l573.41747,274.96226c45.68735,21.90777 71.86858,62.31672 58.47385,90.25063l-0.43193,0.90077c-13.3947,27.93386 -61.29522,32.81957 -106.98271,10.91173l-573.41747,-274.96226c-45.69159,-21.9098 -71.8719,-62.31831 -58.47717,-90.25222l0.43193,-0.90077c13.3947,-27.93386 61.29444,-32.81994 106.98603,-10.91014z" fill="#000000" fill-rule="evenodd" stroke-width="1" stroke-linecap="round" stroke-linejoin="round" stroke-miterlimit="10" opacity="0.31775"/><path d="M-202.08072,242.61306l573.41748,274.96226c45.68736,21.90777 71.86858,62.31671 58.47385,90.25062l-0.43194,0.90077c-13.3947,27.93386 -61.29522,32.81957 -106.98271,10.91173l-573.41748,-274.96226c-45.69159,-21.9098 -71.8719,-62.3183 -58.47717,-90.25221l0.43193,-0.90077c13.3947,-27.93386 61.29445,-32.81994 106.98604,-10.91014z" fill="#000000" fill-rule="evenodd" stroke-width="1" stroke-linecap="round" stroke-linejoin="round" stroke-miterlimit="10" opacity="0.31775"/></g></g></svg>