<svg version="1.1" xmlns="http://www.w3.org/2000/svg" xmlns:xlink="http://www.w3.org/1999/xlink" width="39.02398" height="39.03251" viewBox="0,0,39.02398,39.03251"><g transform="translate(-220.48801,-160.48375)"><g data-paper-data="{&quot;isPaintingLayer&quot;:true}" fill-rule="nonzero" stroke-linejoin="miter" stroke-miterlimit="10" stroke-dasharray="" stroke-dashoffset="0" style="mix-blend-mode: normal"><path d="M228.12295,167.98375l-0.13494,23.34934" fill="#ff0000" stroke="#ff0000" stroke-width="15" stroke-linecap="round"/><path d="M252.01199,168.4188l-0.13494,23.34934" fill="#ff0000" stroke="#ff0000" stroke-width="15" stroke-linecap="round"/><path d="M229.07734,191.96037l21.99525,0.05589" fill="#ff0000" stroke="#ff0000" stroke-width="15" stroke-linecap="round"/><path d="M228.27271,168.04334l21.99525,0.05589" fill="#ff0000" stroke="#ff0000" stroke-width="15" stroke-linecap="round"/><path d="M254.04964,180c0,7.59775 -6.29024,13.75695 -14.04964,13.75695c-7.7594,0 -14.04964,-6.15919 -14.04964,-13.75695c0,-7.59775 6.29024,-13.75695 14.04964,-13.75695c7.7594,0 14.04964,6.15919 14.04964,13.75695z" fill="#ffffff" stroke="#ff0000" stroke-width="0" stroke-linecap="butt"/><path d="M247.07991,180c0,3.79341 -3.16979,6.86856 -7.07991,6.86856c-3.91012,0 -7.07991,-3.07516 -7.07991,-6.86856c0,-3.79341 3.16979,-6.86856 7.07991,-6.86856c3.91012,0 7.07991,3.07516 7.07991,6.86856z" fill="#ff0000" stroke="#ff0000" stroke-width="0" stroke-linecap="butt"/><path d="M242.53608,180c0,1.42274 -1.13544,2.57611 -2.53608,2.57611c-1.40064,0 -2.53608,-1.15336 -2.53608,-2.57611c0,-1.42274 1.13544,-2.57611 2.53608,-2.57611c1.40064,0 2.53608,1.15336 2.53608,2.57611z" fill="#ffffff" stroke="#ff0000" stroke-width="0" stroke-linecap="butt"/><path d="M234.4375,180.75c1.38071,0 2.5,1.11929 2.5,2.5c0,0.21642 -0.0275,0.42642 -0.0792,0.6267l0.00988,0.03622l-0.0376,0.06266c-0.07044,0.23262 -0.17386,0.45091 -0.30484,0.64943h3.70485l0.50615,-0.08436l0.58547,-0.11709l0.24872,0.01184l0.24157,-0.06039h0.19733l0.57145,-0.08164l0.55984,-0.13996l0.00395,-0.01777l-0.01324,-0.04855l0.03816,-0.06361l0.03145,-0.14152l0.03115,-0.06231l0.01742,-0.06966l0.02438,-0.01393l0.05205,-0.1041l0.19846,-0.23154l0.03761,-0.15043v-0.25l0.09747,-0.38988l0.03082,-0.40069l0.125,-0.375l0.01124,-0.01766l0.1244,-0.5598l0.03115,-0.06231l0.01742,-0.06966l0.02438,-0.01393l0.09759,-0.19519l0.06882,-0.20645l0.09661,-0.15181l0.03903,-0.17566l0.5,-1l0.26154,-0.30513l0.20676,-0.34461l0.06371,-0.06371l-0.08087,-0.24261l-0.23381,-0.38968l-0.05894,-0.19366l-0.11852,-0.1641l-0.25,-0.625l-0.01016,-0.07449l-0.04036,-0.06342l-0.14413,-0.43239l-0.06429,-0.09643l-0.03383,-0.09473l-0.07354,-0.04202l-0.13658,-0.54632l-0.1894,-0.53033l0.03788,-0.07576l-0.0244,-0.09758v-0.625h-0.75l-0.24157,-0.06039l-0.24872,0.01184l-0.38226,-0.07645h-0.25245l-0.38988,-0.09747l-0.3579,-0.02753h-0.7141l-0.02336,0.01558l-0.07009,-0.01558h-0.06966l-0.55728,-0.13932l-0.49806,-0.11068h-2.38932l-0.04086,0.00908l-0.086,0.06211l-0.38331,0.15333l-0.15841,0.10561l-0.40291,0.1439l-0.1008,0.05376l-0.00544,0.02718l-0.06058,0.03855l-0.04926,0.04926l-0.16991,0.10194l-0.00155,0.02783l-0.24389,0.20905l-0.17246,0.27101l-0.01242,0.00248l-0.05647,0.11295l-0.06379,0.07443l-0.02854,0.09378l-0.3256,0.54267l-0.05734,0.11467l-0.13579,0.67896v3.75245l-0.06039,0.24157l0.00044,0.00914c0.01993,-0.00047 0.03992,-0.0007 0.05996,-0.0007zM226.29473,188.01777l-0.0207,-0.0759l-0.11141,-0.03714l-0.55158,-1.16444l-0.125,-0.625l0.01184,-0.24872l-0.06039,-0.24157v-1.125l0.05068,-0.20271l-0.01666,-0.20829l0.10841,-0.65047l-1.20493,-0.68853l-0.2826,-1.13042l-0.00042,-0.00047l0.00007,-0.00094l-0.02954,-0.11817v-0.375l0.09747,-0.38988l0.03082,-0.40069l0.09464,-0.28391l0.10171,-0.40685l0.12956,-0.24293l0.05973,-0.26876l0.04554,-0.09109l0.04382,-0.13145l0.025,-0.325l0.125,-0.375l0.17927,-0.28172l0.11231,-0.31447l0.06429,-0.09643l0.01913,-0.05739l0.09661,-0.15181l0.03903,-0.17566l0.2035,-0.40699l0.21138,-0.52845l0.15311,-0.212l0.08795,-0.24627l0.16366,-0.2455l0.02405,-0.04809l0.01444,-0.05776l0.08011,-0.4967l0.10575,-0.24675l0.00461,-0.01845l0.00436,-0.00249l0.21931,-0.51173l0.0429,-0.12869l0.09448,-0.47238l0.04306,-0.0909l-0.02229,-0.08172l0.28973,-0.48289l0.24107,-0.50893l0.08036,-0.02679l0.05175,-0.08625l0.08269,-0.08269l0.18837,-0.56512l0.09661,-0.15181l0.03903,-0.17566l0.25,-0.5l0.26154,-0.30513l0.20676,-0.34461l0.12437,-0.12437l0.2684,-0.35786l0.13965,-0.11347l0.09258,-0.1543l1.375,-1.375l0.3125,-0.1875l0.4375,-0.4375l0.42292,-0.25375l0.09485,-0.16598l0.31164,-0.07791l0.137,-0.0822l0.05137,-0.08989l0.31164,-0.07791l0.27545,-0.16527l0.16459,0.04489l0.33275,-0.11092l0.2898,-0.02229l0.27443,-0.09573l1.28223,-0.11657l0.65811,-0.10969l0.20829,0.01666l0.20271,-0.05068h4.46188l0.02336,-0.01558l0.07009,0.01558h0.06966l0.5,0.125h0.125l0.38988,0.09747l0.3579,0.02753h0.12722l0.19802,0.0495l0.11448,-0.0495l0.45673,0.19231l0.48077,0.12019l0.06188,0.10829l0.18812,0.07921l0.0918,0.06885l0.52349,0.1047l0.30178,0.14295l0.32597,0.07244l0.20055,0.10028l0.05396,0.01079h0.83933l0.02336,-0.01558l0.07009,0.01558h0.06966l0.55728,0.13932l0.56075,0.12461l0.06231,0.03115l0.06966,0.01742l0.01393,0.02438l0.1041,0.05205l0.11994,0.10281l0.14877,0.05313l0.09643,0.06429l0.3413,0.11377l0.11128,0.02782l0.00173,-0.00075l0.00692,0.00291l0.28692,0.07173l0.4371,0.23312l0.45656,0.19224l0.09612,0.07209l0.01022,0.00256l0.01254,0.00669l0.04404,-0.01201l0.53244,0.31946l0.10035,0.05352l0.32234,0.07163l0.06231,0.03115l0.06966,0.01742l0.01393,0.02438l0.07457,0.03729l0.03823,-0.00264l0.47854,0.43504l0.49104,0.42089l0.00213,0.03826l0.48169,0.72253l0.08795,0.24627l0.15311,0.212l0.1756,0.43901l0.27194,0.45323l0.02854,0.09378l0.06379,0.07443l0.625,1.25l0.07244,0.32597l0.14295,0.30178l0.07999,0.39993l0.16475,0.41189l0.05027,0.36865l0.1199,0.35221l0.1033,1.23956l0.2999,0.99968l0.00982,0.21115l0.07631,0.19713l0.11867,0.94939l0.11662,0.69969l-0.01666,0.20829l0.05068,0.20271v0.75l-0.0516,0.20641l0.02213,0.2877l-0.13053,0.14588l-0.1525,0.61001l-0.41016,0.23438l0.09766,0.39062v0.58688l0.01558,0.02336l-0.01558,0.07009v0.06966l-0.1349,0.5396l0.0099,0.0229l-0.03278,0.07786l-0.10615,0.47768l-0.03115,0.06231l-0.01742,0.06966l-0.02438,0.01393l-0.05205,0.1041l-0.14789,0.17253l-0.08818,0.20943l-0.23975,0.31966l-0.27419,0.54837l-0.10281,0.11994l-0.05313,0.14877l-0.56429,0.84643l-0.01913,0.05739l-0.17927,0.28172l-0.11231,0.31447l-0.0098,0.01469l-0.01997,0.07989l-0.12956,0.24293l-0.05973,0.26876l-0.125,0.25l-0.20846,0.2432l-0.14617,0.28502l-0.76716,0.87675l-0.40916,0.61374l-0.05256,0.04778l-0.02757,0.06547l-0.375,0.5l-0.01992,0.01619l-0.00706,0.05062l-0.4971,0.35902l-0.47591,0.38668l-0.05071,-0.00634l-0.02081,0.01503l-0.625,0.25l-0.07449,0.01016l-0.06342,0.04036l-0.05739,0.01913l-0.09643,0.06429l-0.14877,0.05313l-0.11994,0.10281l-0.3541,0.17705l-0.01393,0.02438l-0.06966,0.01742l-0.06231,0.03115l-0.56075,0.12461l-0.37694,0.09424l-0.06231,0.03115l-0.45,0.1l-0.3,0.15l-0.26876,0.05973l-0.24293,0.12956l-0.5,0.125h-0.06096l-0.05509,0.0261l-0.625,0.125l-0.04134,-0.00197l-0.03795,0.0165l-0.75,0.125l-0.06953,-0.00556l-0.06539,0.02429l-0.587,0.06522l-0.08248,0.05249l-0.20905,0.24389l-0.19087,0.0106l-0.4161,0.26479l-0.375,0.125l-0.40069,0.03082l-0.38988,0.09747h-0.5l-0.38988,-0.09747l-0.40069,-0.03082l-0.22734,-0.07578l-0.47238,-0.09448l-0.72881,-0.34522l-0.17845,-0.00991l-0.10767,-0.12561l-0.14952,-0.07082l-0.0246,-0.07379l-0.19567,0.04892h-0.06966l-0.07009,0.01558l-0.02336,-0.01558h-4.33688l-0.38988,-0.09747l-0.40069,-0.03082l-0.69847,-0.23282l-0.82277,-0.23508l-0.04824,-0.02783l-0.05553,-0.00427l-0.375,-0.125l-0.23228,-0.14781l-0.26339,-0.08016l-0.625,-0.375l-0.0431,-0.0431l-0.05741,-0.0205l-0.375,-0.25l-0.70483,-0.77532l-0.09592,-0.05481l-0.01748,-0.06993l-0.04849,-0.05334l0.0076,-0.11021l-0.25413,-1.01652v-2.125l0.06039,-0.24157l-0.00071,-0.015z" fill="#ff0000" stroke="none" stroke-width="0.5" stroke-linecap="butt"/><path d="M239.0625,179.75c0,-0.27614 0.22386,-0.5 0.5,-0.5c0.27614,0 0.5,0.22386 0.5,0.5c0,0.27614 -0.22386,0.5 -0.5,0.5c-0.27614,0 -0.5,-0.22386 -0.5,-0.5z" fill="#000000" stroke="none" stroke-width="0.5" stroke-linecap="butt"/></g></g></svg>