<svg version="1.1" xmlns="http://www.w3.org/2000/svg" xmlns:xlink="http://www.w3.org/1999/xlink" width="39.02398" height="39.03251" viewBox="0,0,39.02398,39.03251"><g transform="translate(-220.48801,-160.48375)"><g data-paper-data="{&quot;isPaintingLayer&quot;:true}" fill-rule="nonzero" stroke-linejoin="miter" stroke-miterlimit="10" stroke-dasharray="" stroke-dashoffset="0" style="mix-blend-mode: normal"><path d="M228.12295,167.98375l-0.13494,23.34934" fill="none" stroke="#ff0000" stroke-width="15" stroke-linecap="round"/><path d="M252.01199,168.4188l-0.13494,23.34934" fill="none" stroke="#ff0000" stroke-width="15" stroke-linecap="round"/><path d="M229.07734,191.96037l21.99525,0.05589" fill="none" stroke="#ff0000" stroke-width="15" stroke-linecap="round"/><path d="M228.27271,168.04334l21.99525,0.05589" fill="none" stroke="#ff0000" stroke-width="15" stroke-linecap="round"/><path d="M254.04964,180c0,7.59775 -6.29024,13.75695 -14.04964,13.75695c-7.7594,0 -14.04964,-6.15919 -14.04964,-13.75695c0,-7.59775 6.29024,-13.75695 14.04964,-13.75695c7.7594,0 14.04964,6.15919 14.04964,13.75695z" fill="#ffffff" stroke="#ff0000" stroke-width="0" stroke-linecap="butt"/><path d="M251.28626,176c0,3.79341 -3.16979,6.86856 -7.07991,6.86856c-3.91012,0 -7.07991,-3.07516 -7.07991,-6.86856c0,-3.79341 3.16979,-6.86856 7.07991,-6.86856c3.91012,0 7.07991,3.07516 7.07991,6.86856z" fill="#ff0000" stroke="#ff0000" stroke-width="0" stroke-linecap="butt"/><path d="M248.03409,173.95436c0,1.42274 -1.13544,2.57611 -2.53608,2.57611c-1.40064,0 -2.53608,-1.15336 -2.53608,-2.57611c0,-1.42274 1.13544,-2.57611 2.53608,-2.57611c1.40064,0 2.53608,1.15336 2.53608,2.57611z" fill="#ffffff" stroke="#ff0000" stroke-width="0" stroke-linecap="butt"/><path d="M245.8125,161.75c2.56706,0 4.68229,1.93455 4.96733,4.42529c0.68431,-0.35175 1.46031,-0.55029 2.28267,-0.55029c2.76142,0 5,2.23858 5,5c0,1.53408 -0.69088,2.9068 -1.77847,3.82399c1.15938,0.91568 1.90347,2.33395 1.90347,3.92601c0,0.31555 -0.02923,0.62427 -0.08513,0.9236c0.39394,2.16555 -2.13064,4.081 -2.81356,5.79615c-3.81852,9.59022 -13.81573,12.3454 -23.80214,9.0166c-2.5532,-0.85107 -2.92752,-2.5882 -4.01467,-4.61755c-0.87344,-1.63041 -2.70667,-2.63651 -3.52792,-4.41267c-1.73134,-3.74448 -1.26454,-9.02939 1.2442,-12.31967c-0.47591,-0.76541 -0.75078,-1.66884 -0.75078,-2.63647c0,-1.62714 0.77725,-3.07275 1.98072,-3.98581c0.15393,-0.14902 0.32556,-0.28022 0.51928,-0.38919c0.774,-0.43538 1.64071,-0.63402 2.50654,-0.625c0.37011,0.00047 0.73079,0.04116 1.07792,0.11792c0.6916,0.1446 1.35668,0.419 1.94459,0.80746c0.4385,-1.29326 0.99787,-2.44146 2.00207,-2.49725c0.78263,-0.50805 1.71629,-0.80314 2.71887,-0.80314c1.65129,0 3.11561,0.80048 4.0261,2.03456c0.76357,-1.78434 2.53523,-3.03456 4.5989,-3.03456zM245.8125,171.75c-1.62253,0 -3.06456,-0.77285 -3.97803,-1.9705c-0.83482,1.90789 -1.74032,4.13284 -2.72482,6.26529c2.17113,0.29172 3.90072,1.97686 4.25941,4.12604c0.76226,0.08323 1.38992,0.26676 1.6061,0.64509l0.96298,1.68522c0.76996,-1.26388 1.26406,-2.80745 2.24966,-4.18215c0.01659,-1.51146 0.70383,-2.86197 1.77817,-3.76798c-1.01784,-0.80389 -1.71561,-1.99515 -1.8708,-3.3513c-0.68431,0.35175 -1.46031,0.55029 -2.28267,0.55029z" fill="#ff0000" stroke="none" stroke-width="0.5" stroke-linecap="butt"/><path d="M245.4375,174.125c0,-0.27614 0.22386,-0.5 0.5,-0.5c0.27614,0 0.5,0.22386 0.5,0.5c0,0.27614 -0.22386,0.5 -0.5,0.5c-0.27614,0 -0.5,-0.22386 -0.5,-0.5z" fill="#000000" stroke="none" stroke-width="0.5" stroke-linecap="butt"/></g></g></svg>