<svg version="1.1" xmlns="http://www.w3.org/2000/svg" xmlns:xlink="http://www.w3.org/1999/xlink" width="297.8323" height="177.41624" viewBox="0,0,297.8323,177.41624"><g transform="translate(-91.08385,-91.29188)"><g data-paper-data="{&quot;isPaintingLayer&quot;:true}" fill="#787878" fill-rule="nonzero" stroke="none" stroke-width="0" stroke-linecap="butt" stroke-linejoin="miter" stroke-miterlimit="10" stroke-dasharray="" stroke-dashoffset="0" style="mix-blend-mode: normal"><path d="M134.03797,120.16895c0,8.57358 1.93653,17.11543 -0.36816,20.9045c-1.03171,1.6962 -5.71495,1.56871 -6.9678,1.56871c-1.26367,0 -5.73747,0.38321 -6.77551,-1.34041c-0.83029,-1.37866 0.18791,-4.32344 -0.41007,-6.53539c-0.16983,-0.6282 -0.15037,-10.03275 -0.15037,-14.59741c0,-12.41161 3.28442,-22.47321 7.33596,-22.47321c4.05154,0 7.33596,10.0616 7.33596,22.47321z"/><path d="M159.44008,120.56821c0,8.57358 1.93653,17.11543 -0.36816,20.9045c-1.03171,1.6962 -5.71495,1.56871 -6.9678,1.56871c-1.26367,0 -5.73747,0.38321 -6.77551,-1.34041c-0.83028,-1.37865 0.18791,-4.32344 -0.41007,-6.53539c-0.16983,-0.6282 -0.15037,-10.03275 -0.15037,-14.59741c0,-12.41161 3.28442,-22.47321 7.33595,-22.47321c4.05154,0 7.33596,10.0616 7.33596,22.47321z"/><path d="M170.60825,158.09637c0,14.08967 -13.92202,25.51161 -31.09569,25.51161c-17.17368,0 -31.09569,-11.42194 -31.09569,-25.51161c0,-14.08967 13.92202,-25.51161 31.09569,-25.51161c17.17368,0 31.09569,11.42194 31.09569,25.51161z"/><g><path d="M170.77626,204.57449c-0.55161,8.29658 12.42438,43.17119 7.86603,48.98757c-4.8113,6.13915 -8.81143,-14.99676 -18.74815,-21.45853c-3.2428,-2.10877 -21.09364,1.28988 -23.6137,1.12233c-8.17075,-0.54325 -7.69215,28.23935 -12.94178,22.12071c-6.03135,-7.02975 -10.21188,-45.22918 -9.50409,-55.87475c0.73167,-11.00472 2.85807,-11.32706 10.1517,-17.48432c5.90309,-4.98337 10.27775,-0.54478 18.1318,-0.02259c6.9428,0.4616 12.29391,-4.03944 17.23792,0.59088c7.55929,7.07966 12.22064,9.98061 11.42027,22.0187z"/><path d="M120.52373,198.13766c-1.16976,3.24227 -1.22486,5.13132 -11.97553,1.25265c-10.75068,-3.87867 -18.51754,-9.65134 -17.34779,-12.89361c1.16976,-3.24227 10.83318,-2.72636 21.58386,1.15232c10.75068,3.87867 8.90922,7.24637 7.73946,10.48864z"/><path d="M170.02354,178.4517c10.75068,-3.87867 20.4141,-4.39459 21.58386,-1.15232c1.16976,3.24227 -6.59711,9.01493 -17.34779,12.89361c-10.75068,3.87867 -10.80577,1.98962 -11.97553,-1.25265c-1.16976,-3.24227 -3.01121,-6.60997 7.73946,-10.48864z" data-paper-data="{&quot;index&quot;:null}"/><path d="M123.11209,228.96615c0,3.62824 -4.70603,6.56951 -10.51122,6.56951c-5.80519,0 -10.51122,-2.94127 -10.51122,-6.56951c0,-3.62824 4.70603,-6.56951 10.51122,-6.56951c5.80519,0 10.51122,2.94127 10.51122,6.56951z"/></g><g><path d="M244.77668,228.75167c0,7.26078 8.61633,19.92048 5.86194,23.6793c-2.28021,3.11173 -17.24014,2.14214 -23.43342,2.14214c-3.9007,0 -19.62259,0.31861 -21.83634,-1.24087c-5.54687,-3.90751 6.26162,-15.99029 6.26162,-25.47611c0,-8.15767 -10.98709,-18.64959 -4.58367,-22.99346c4.01421,-2.72311 15.28858,-1.63393 20.55774,-1.63393c6.61232,0 20.11354,-2.12098 24.45799,2.12217c4.64,4.5318 -7.28587,16.54667 -7.28587,23.40076z"/><path d="M231.59808,194.82175c0,14.88752 10.06793,14.97569 1.79708,14.97569c-8.27084,0 -18.96921,-12.46807 -18.96921,-27.35559c0,-14.88752 12.29577,-34.54392 20.56661,-34.54392c0.55635,0 3.98383,0.6454 6.7713,2.52564c1.45374,0.98059 3.02413,3.75071 3.30115,3.83397c0.57253,0.17209 2.60782,3.75076 3.35662,5.38162c1.36353,2.96972 1.23577,5.02982 -0.11941,7.57813c-3.56481,6.7034 -20.07943,6.74068 -21.46335,12.24034c-1.37803,5.47626 4.75919,10.21568 4.75919,15.36411z"/></g><g><path d="M293.63683,200.00866l-35.91315,-87.71748l4.19924,-1.71925l35.91315,87.71748z"/><path d="M290.6534,102.51024c1.14503,2.79671 5.3769,7.15974 3.42238,10.50577c-3.411,5.83947 -14.19579,14.71962 -23.97401,18.72301c-9.58412,3.92391 -19.02678,6.49604 -25.54364,4.86857c-3.9418,-0.98439 -8.42023,-8.39907 -9.60493,-11.29267c-1.14503,-2.79671 -6.18022,-6.067 -4.22571,-9.41304c1.31924,-2.25848 12.40328,-11.76599 15.88589,-13.95646c5.52195,-3.47317 3.16289,-2.75006 9.15928,-5.2051c2.98866,-1.22361 7.77218,-2.83345 10.57042,-4.29162c4.10851,-2.14096 7.44299,-0.68829 10.97618,-0.51171c6.44497,0.32211 11.69835,6.57785 13.33414,10.57325z"/></g><path d="M353.29799,110.20325c4.05154,0 7.33596,10.0616 7.33596,22.47321c0,4.56466 0.01945,13.9692 -0.15037,14.5974c-0.59798,2.21195 0.42021,5.15673 -0.41007,6.53539c-1.03804,1.72362 -5.51184,1.34041 -6.77551,1.34041c-1.25285,0 -5.93609,0.1275 -6.9678,-1.5687c-2.30469,-3.78906 -0.36816,-12.33092 -0.36816,-20.9045c0,-12.41161 3.28442,-22.47321 7.33596,-22.47321z" data-paper-data="{&quot;index&quot;:null}"/><path d="M327.89588,110.60251c4.05154,0 7.33596,10.0616 7.33596,22.47321c0,4.56466 0.01945,13.9692 -0.15037,14.5974c-0.59798,2.21195 0.42022,5.15674 -0.41007,6.5354c-1.03804,1.72362 -5.51184,1.3404 -6.77551,1.3404c-1.25285,0 -5.93609,0.1275 -6.9678,-1.5687c-2.30469,-3.78907 -0.36816,-12.33092 -0.36816,-20.9045c0,-12.41161 3.28443,-22.47321 7.33596,-22.47321z" data-paper-data="{&quot;index&quot;:null}"/><path d="M340.48744,145.09227c17.17367,0 31.09569,11.42193 31.09569,25.51161c0,14.08967 -13.92202,25.51161 -31.09569,25.51161c-17.17368,0 -31.0957,-11.42194 -31.0957,-25.51161c0,-14.08967 13.92202,-25.51161 31.0957,-25.51161z" data-paper-data="{&quot;index&quot;:null}"/><g data-paper-data="{&quot;index&quot;:null}"><path d="M326.14701,189.57531c1.83536,-1.71891 3.31319,2.97063 4.80119,3.65535c2.5203,1.15974 5.0698,-0.44848 9.43523,-0.73872c5.0281,-0.3343 7.11675,1.23745 9.27782,0.60099c1.21458,-0.3577 2.224,-4.37746 4.34797,-2.58441c7.29363,6.15726 11.42453,10.46609 12.1562,21.47082c0.70779,10.64556 -3.47274,48.84499 -9.50409,55.87474c-5.24963,6.11864 -4.77103,-22.66396 -12.94178,-22.12071c-2.52007,0.16755 -20.37089,-3.2311 -23.6137,-1.12233c-9.93672,6.46177 -13.93685,27.59767 -18.74815,21.45853c-4.55835,-5.81638 8.41764,-40.69099 7.86603,-48.98757c-0.80037,-12.03809 8.36099,-20.1057 15.92028,-27.18536z"/><path d="M367.21574,200.15652c10.75068,-3.87868 20.41409,-4.39458 21.58385,-1.15232c1.16976,3.24227 -6.59711,9.01493 -17.34779,12.89361c-10.75067,3.87867 -10.80577,1.98962 -11.97553,-1.25265c-1.16976,-3.24226 -3.01121,-6.60997 7.73946,-10.48864z"/><path d="M317.71592,201.44785c-1.16976,3.24227 -1.22486,5.13133 -11.97553,1.25265c-10.75067,-3.87867 -18.51754,-9.65134 -17.34778,-12.89361c1.16976,-3.24227 10.83318,-2.72636 21.58385,1.15232c10.75068,3.87867 8.90922,7.24637 7.73946,10.48864z" data-paper-data="{&quot;index&quot;:null}"/><path d="M367.39913,234.90414c5.80519,0 10.51122,2.94127 10.51122,6.56951c0,3.62824 -4.70604,6.56952 -10.51122,6.56952c-5.80518,0 -10.51122,-2.94128 -10.51122,-6.56952c0,-3.62824 4.70604,-6.56951 10.51122,-6.56951z"/></g></g></g></svg>