<svg version="1.1" xmlns="http://www.w3.org/2000/svg" xmlns:xlink="http://www.w3.org/1999/xlink" width="599.0991" height="498.07959" viewBox="0,0,599.0991,498.07959"><defs><radialGradient cx="354.11411" cy="92.91291" r="96" gradientUnits="userSpaceOnUse" id="color-1"><stop offset="0" stop-color="#fffe91"/><stop offset="1" stop-color="#ffde24"/></radialGradient><radialGradient cx="354.11411" cy="92.91291" r="177.50901" gradientUnits="userSpaceOnUse" id="color-2"><stop offset="0" stop-color="#ffde24"/><stop offset="1" stop-color="#ffde24" stop-opacity="0"/></radialGradient></defs><g transform="translate(59.54955,84.5961)"><g data-paper-data="{&quot;isPaintingLayer&quot;:true}" fill-rule="nonzero" stroke="none" stroke-width="0" stroke-linecap="butt" stroke-linejoin="miter" stroke-miterlimit="10" stroke-dasharray="" stroke-dashoffset="0" style="mix-blend-mode: normal"><path d="M-59.54955,413.48349v-466.96697h599.0991v466.96697z" fill="#150050"/><g><path d="M258.11411,92.91291c0,-53.01934 42.98066,-96 96,-96c53.01934,0 96,42.98066 96,96c0,53.01934 -42.98066,96 -96,96c-53.01934,0 -96,-42.98066 -96,-96z" fill="url(#color-1)"/><path d="M176.60511,92.91291c0,-98.03552 79.47349,-177.50901 177.50901,-177.50901c98.03552,0 177.50901,79.47349 177.50901,177.50901c0,98.03552 -79.47349,177.50901 -177.50901,177.50901c-98.03552,0 -177.50901,-79.47349 -177.50901,-177.50901z" fill="url(#color-2)"/></g><path d="M300.48937,66.66609c0,4.03515 0.91143,8.05537 -0.17327,9.83869c-0.48557,0.79832 -2.68974,0.73831 -3.27939,0.73831c-0.59475,0 -2.70034,0.18036 -3.18889,-0.63086c-0.39078,-0.64887 0.08844,-2.03483 -0.193,-3.07588c-0.07993,-0.29566 -0.07077,-4.72191 -0.07077,-6.87026c0,-5.84152 1.54581,-10.57701 3.45267,-10.57701c1.90686,0 3.45267,4.73549 3.45267,10.57701z" fill-opacity="0.60392" fill="#828282"/><path d="M312.44486,66.85401c0,4.03515 0.91143,8.05537 -0.17327,9.83869c-0.48557,0.79832 -2.48974,0.73831 -3.07939,0.73831c-0.59475,0 -2.90034,0.18036 -3.38889,-0.63086c-0.39077,-0.64886 0.08844,-2.03483 -0.193,-3.07588c-0.07993,-0.29566 -0.07077,-4.72191 -0.07077,-6.87026c0,-5.84152 1.54581,-10.57701 3.45266,-10.57701c1.90686,0 3.45267,4.73549 3.45267,10.57701z" fill-opacity="0.60392" fill="#828282"/><g fill-opacity="0.60392" fill="#828282"><path d="M317.78023,106.39153c-0.25962,3.90478 5.84753,20.3185 3.70214,23.05598c-2.26444,2.88939 -4.1471,-7.05822 -8.82381,-10.09945c-1.52622,-0.99249 -9.92771,0.60708 -11.11378,0.52822c-3.84556,-0.25568 -3.62031,13.29084 -6.09104,10.4111c-2.83865,-3.30855 -4.80622,-21.28709 -4.4731,-26.29743c0.34436,-5.17937 1.34515,-5.33108 4.77789,-8.22899c2.77829,-2.34542 4.83722,-0.2564 8.53372,-0.01063c3.26763,0.21725 5.78612,-1.90116 8.11302,0.2781c3.55778,3.33204 5.75164,4.69737 5.37495,10.36309z"/><path d="M294.1289,103.36203c-0.55055,1.52597 -0.57648,2.41505 -5.63628,0.58956c-5.0598,-1.82549 -8.71527,-4.5424 -8.16473,-6.06837c0.55055,-1.52597 5.09863,-1.28316 10.15843,0.54234c5.0598,1.82549 4.19312,3.4105 3.64257,4.93647z"/><path d="M317.42596,94.09685c5.0598,-1.82549 9.60789,-2.06831 10.15843,-0.54234c0.55055,1.52597 -3.10493,4.24287 -8.16473,6.06837c-5.0598,1.82549 -5.08573,0.93641 -5.63628,-0.58956c-0.55055,-1.52597 -1.41722,-3.11098 3.64257,-4.93647z" data-paper-data="{&quot;index&quot;:null}"/><path d="M295.34711,117.87145c0,1.70763 -2.21489,3.09194 -4.9471,3.09194c-2.73221,0 -4.9471,-1.38431 -4.9471,-3.09194c0,-1.70763 2.21489,-3.09194 4.9471,-3.09194c2.73221,0 4.9471,1.38431 4.9471,3.09194z"/></g><g fill-opacity="0.60392" fill="#828282"><path d="M352.6085,117.7705c0,3.41728 4.05527,9.37557 2.75892,11.14465c-1.07318,1.46453 -8.11406,1.0082 -11.02893,1.0082c-1.83586,0 -9.23536,0.14995 -10.27726,-0.58401c-2.61063,-1.83907 2.94703,-7.52582 2.94703,-11.99032c0,-3.8394 -5.17107,-8.77742 -2.1573,-10.82186c1.88929,-1.28163 7.19556,-0.76901 9.67549,-0.76901c3.11209,0 9.46643,-0.99824 11.51114,0.9988c2.18381,2.13289 -3.42909,7.78768 -3.42909,11.01356z"/><path d="M346.406,101.8014c0,7.0068 4.73847,7.0483 0.84579,7.0483c-3.89267,0 -8.92785,-5.86809 -8.92785,-12.8749c0,-7.0068 5.787,-16.25808 9.67967,-16.25808c0.26185,0 1.87499,0.30376 3.18691,1.18869c0.6842,0.46151 1.42331,1.76527 1.55368,1.80446c0.26946,0.08099 1.22737,1.76529 1.57979,2.53286c0.64174,1.3977 0.58161,2.36728 -0.0562,3.56664c-1.67778,3.15495 -9.45038,3.1725 -10.10172,5.76091c-0.64857,2.5774 2.23991,4.80801 2.23991,7.23111z"/></g><g fill-opacity="0.60392" fill="#828282"><path d="M375.60451,104.24262l-16.90251,-41.28419l1.97637,-0.80916l16.90251,41.28419z"/><path d="M374.20036,58.35503c0.53891,1.31627 2.53064,3.36973 1.61074,4.94454c-1.60539,2.74834 -6.68124,6.92778 -11.28336,8.81198c-4.51076,1.84679 -8.95495,3.05736 -12.0221,2.29139c-1.85521,-0.4633 -3.96298,-3.95302 -4.52056,-5.31489c-0.53891,-1.31627 -2.90872,-2.85543 -1.98883,-4.43024c0.6209,-1.06295 5.8376,-5.53766 7.47669,-6.5686c2.5989,-1.63465 1.48861,-1.29431 4.31081,-2.44978c1.40661,-0.57589 3.65797,-1.33356 4.97496,-2.01985c1.93367,-1.00764 3.50304,-0.32394 5.16593,-0.24084c3.03332,0.1516 5.50582,3.09586 6.27571,4.9763z"/></g><path d="M403.68401,61.97574c1.90686,0 3.45267,4.73549 3.45267,10.57701c0,2.14836 0.00915,6.5746 -0.07077,6.87026c-0.28144,1.04105 0.19777,2.42701 -0.193,3.07588c-0.48855,0.81122 -2.59415,0.63086 -3.18889,0.63086c-0.58965,0 -2.79382,0.06001 -3.27939,-0.73831c-1.0847,-1.78332 -0.17327,-5.80354 -0.17327,-9.83869c0,-5.84152 1.54581,-10.57701 3.45267,-10.57701z" data-paper-data="{&quot;index&quot;:null}" fill-opacity="0.60392" fill="#828282"/><path d="M391.72851,62.16365c1.90686,0 3.45267,4.73549 3.45267,10.57701c0,2.14836 0.00915,6.5746 -0.07077,6.87026c-0.28144,1.04105 0.19778,2.42702 -0.193,3.07588c-0.48855,0.81122 -2.59415,0.63086 -3.18889,0.63086c-0.58965,0 -2.79382,0.06001 -3.27939,-0.73831c-1.0847,-1.78332 -0.17327,-5.80354 -0.17327,-9.83869c0,-5.84152 1.54582,-10.57701 3.45267,-10.57701z" data-paper-data="{&quot;index&quot;:null}" fill-opacity="0.60392" fill="#828282"/><path d="M397.65473,78.39624c8.08278,0 14.63517,5.37573 14.63517,12.00703c0,6.6313 -6.55239,12.00703 -14.63517,12.00703c-8.08279,0 -14.63518,-5.37573 -14.63518,-12.00703c0,-6.6313 6.55239,-12.00703 14.63518,-12.00703z" data-paper-data="{&quot;index&quot;:null}" fill-opacity="0.60392" fill="#828282"/><g data-paper-data="{&quot;index&quot;:null}" fill-opacity="0.60392" fill="#828282"><path d="M390.90541,99.33217c0.86381,-0.809 1.55935,1.39813 2.25968,1.72039c1.18618,0.54583 2.3861,-0.21108 4.44069,-0.34768c2.36647,-0.15734 3.3495,0.58241 4.3666,0.28286c0.57164,-0.16835 1.04672,-2.06025 2.04637,-1.21635c3.43274,2.89791 5.37695,4.92586 5.72131,10.10523c0.33312,5.01033 -1.63444,22.98887 -4.4731,26.29742c-2.47074,2.87974 -2.24548,-10.66678 -6.09104,-10.4111c-1.18607,0.07886 -9.58755,-1.52072 -11.11378,-0.52822c-4.67671,3.04123 -6.55937,12.98883 -8.82381,10.09945c-2.14539,-2.73748 3.96176,-19.1512 3.70214,-23.05598c-0.37669,-5.66572 3.9351,-9.46274 7.49287,-12.79478z"/><path d="M410.23439,104.31221c5.0598,-1.8255 9.60788,-2.06831 10.15843,-0.54234c0.55055,1.52597 -3.10493,4.24287 -8.16473,6.06837c-5.0598,1.82549 -5.08573,0.93641 -5.63628,-0.58956c-0.55055,-1.52597 -1.41722,-3.11098 3.64257,-4.93647z"/><path d="M386.93732,104.91997c-0.55055,1.52597 -0.57648,2.41506 -5.63628,0.58956c-5.0598,-1.82549 -8.71527,-4.5424 -8.16473,-6.06837c0.55055,-1.52597 5.09863,-1.28316 10.15843,0.54234c5.0598,1.82549 4.19312,3.4105 3.64257,4.93647z" data-paper-data="{&quot;index&quot;:null}"/><path d="M410.3207,120.66616c2.73221,0 4.9471,1.38431 4.9471,3.09194c0,1.70763 -2.2149,3.09194 -4.9471,3.09194c-2.73221,0 -4.9471,-1.38431 -4.9471,-3.09194c0,-1.70763 2.2149,-3.09194 4.9471,-3.09194z"/></g><path d="M317.70116,84.51662c0,6.6313 -6.55239,12.00703 -14.63517,12.00703c-8.08279,0 -14.63517,-5.37573 -14.63517,-12.00703c0,-6.6313 6.55239,-12.00703 14.63517,-12.00703c8.08279,0 14.63517,5.37573 14.63517,12.00703z" fill-opacity="0.60392" fill="#828282"/></g></g></svg>