<svg version="1.1" xmlns="http://www.w3.org/2000/svg" xmlns:xlink="http://www.w3.org/1999/xlink" width="39.02398" height="39.03251" viewBox="0,0,39.02398,39.03251"><g transform="translate(-220.48801,-160.48375)"><g data-paper-data="{&quot;isPaintingLayer&quot;:true}" fill-rule="nonzero" stroke-linejoin="miter" stroke-miterlimit="10" stroke-dasharray="" stroke-dashoffset="0" style="mix-blend-mode: normal"><path d="M228.12295,167.98375l-0.13494,23.34934" fill="none" stroke="#ff0000" stroke-width="15" stroke-linecap="round"/><path d="M252.01199,168.4188l-0.13494,23.34934" fill="none" stroke="#ff0000" stroke-width="15" stroke-linecap="round"/><path d="M229.07734,191.96037l21.99525,0.05589" fill="none" stroke="#ff0000" stroke-width="15" stroke-linecap="round"/><path d="M228.27271,168.04334l21.99525,0.05589" fill="none" stroke="#ff0000" stroke-width="15" stroke-linecap="round"/><path d="M254.04964,180c0,7.59775 -6.29024,13.75695 -14.04964,13.75695c-7.7594,0 -14.04964,-6.15919 -14.04964,-13.75695c0,-7.59775 6.29024,-13.75695 14.04964,-13.75695c7.7594,0 14.04964,6.15919 14.04964,13.75695z" fill="#ffffff" stroke="#ff0000" stroke-width="0" stroke-linecap="butt"/><path d="M247.30213,175.2381c0,3.79341 -3.16979,6.86856 -7.07991,6.86856c-3.91012,0 -7.07991,-3.07516 -7.07991,-6.86856c0,-3.79341 3.16979,-6.86856 7.07991,-6.86856c3.91012,0 7.07991,3.07516 7.07991,6.86856z" fill="#ff0000" stroke="#ff0000" stroke-width="0" stroke-linecap="butt"/><path d="M242.72655,173.68254c0,1.42274 -1.13544,2.57611 -2.53608,2.57611c-1.40064,0 -2.53608,-1.15336 -2.53608,-2.57611c0,-1.42274 1.13544,-2.57611 2.53608,-2.57611c1.40064,0 2.53608,1.15336 2.53608,2.57611z" fill="#ffffff" stroke="#ff0000" stroke-width="0" stroke-linecap="butt"/><path d="M244.0625,164.25c0.77274,0 1.49089,0.23373 2.08761,0.63435l0.53739,-0.13435h0.00532l0.03505,-0.02336l0.10514,0.02336h0.10449l0.83592,0.20898l0.18459,0.04102h0.10449l0.83592,0.20898l0.84113,0.18692l0.09346,0.04673l0.10449,0.02612l0.0209,0.03657l1.03115,0.51558l0.45769,0.39231l0.51691,0.31015l0.25,0.25l0.12008,0.20013l0.12274,0.10521l0.00608,0.1095l0.13173,0.21954l0.24897,0.14227l0.11686,0.46746l0.17221,0.28701l0.21093,0.12053l0.11686,0.46746l0.24791,0.41318l-0.07545,0.27665l0.09507,0.38027l0.01693,0.0266l0.125,0.375l0.04623,0.60104l0.1462,0.58482v0.01646l0.05756,0.17269l0.01128,0.14661l0.06919,0.12974l0.00703,0.02812l0.01119,0.00639l0.02612,0.10449l0.04673,0.09346l0.14392,0.64763l0.01043,0.01639l0.0228,0.01303l0.00939,0.03755l0.01693,0.0266l0.04072,0.12217l0.00582,0.01163l0.00388,0.01745l0.07458,0.22375l0.01316,0.1711l0.0953,0.42883l0.20898,0.83592v0.10449l0.02336,0.10514l-0.02336,0.03505v8.13032l-0.06546,0.26185l0.02777,0.26848l-0.21099,1.47696l0.02205,0.03307l-0.02336,0.10514v0.10449l-0.20898,0.83592l-0.05899,0.26547l0.03899,0.14298l-0.11239,0.18732l-0.05452,0.24536l-0.04673,0.09346l-0.02612,0.10449l-0.03657,0.0209l-0.01558,0.03115l-0.3354,0.39131l-0.29873,0.46944l-0.32451,0.54085l-0.00098,0.01767l-0.0198,0.01697l-0.09802,0.16336l-0.07389,0.07389l-0.05782,0.09087l-0.0413,0.00826l-0.20199,0.20199l-0.51691,0.31015l-0.29505,0.2529l-0.36838,0.42978l-0.05739,0.00319l-0.33379,0.22253l-0.03424,0.01223l-0.14423,0.14423l-0.39586,0.23751l-0.32643,0.32643l-0.22914,0.13749l-1.09564,1.09564l-0.92679,1.04264l-0.78133,0.53359l-0.14645,0.25629l-0.36098,0.09024l-0.30727,0.20984l-0.28885,-0.06081l-0.9179,0.22948h-3.375l-0.30407,-0.07602l-0.31243,0.02499l-0.44386,-0.07398l-1.31464,0l-0.41296,-0.10324l-0.00241,0.0016l-0.10514,-0.02336h-0.10449l-0.14037,-0.03509l-0.42048,-0.03234l-0.375,-0.125l-0.0266,-0.01693l-0.24737,-0.06184l-0.06182,-0.00476l-0.06788,0.01056l-1.20559,-0.1096h-0.4549l-0.22989,-0.05747l-0.23524,0.02851l-1,-0.125l-0.34832,-0.13483l-0.3724,-0.02865l-1.125,-0.375l-0.22771,-0.14491l-0.26348,-0.05855l-0.74565,-0.37283l-0.11834,-0.01972l-0.69243,-0.08655h-0.14153l-0.14637,-0.03659l-0.11364,0.05682l-0.7955,-0.28411l-0.81949,-0.20487l-0.06304,-0.11032l-0.14209,-0.05075l-0.375,-0.25l-0.25125,-0.27637l-0.32028,-0.19217l-0.25,-0.25l-0.0892,-0.14867l-0.13998,-0.10229l-0.625,-0.75l-0.12746,-0.26402l-0.20731,-0.20731l-0.375,-0.625l-0.04281,-0.14067l-0.09569,-0.11164l-0.375,-0.75l-0.07616,-0.34273l-0.17545,-0.30411l-0.40425,-1.41488l-0.09413,-0.18827l-0.03748,-0.16867l-0.01467,-0.00838l-0.03145,-0.12578l-0.11987,-0.18836l-0.125,-0.375l-0.02031,-0.26406l-0.22969,-0.36094l-0.04072,-0.12217l-0.10867,-0.21734l-0.4447,-0.4447l-0.13887,-0.23145l-0.20948,-0.1702l-0.2151,-0.2868l-0.18655,-0.18655l-0.19217,-0.32028l-0.27637,-0.25125l-0.25,-0.375l-0.2215,-0.62021l-0.05433,-0.09054l0.00952,-0.03491l-0.38373,-1.07444l0.01305,-0.0261l-0.01619,-0.02428l0.41926,-1.88668l0.125,-0.25l0.48146,-0.56171l0.05624,-0.28118l0.40651,-0.25869l0.31358,-0.36584l0.19851,-0.01103l0.04129,-0.04129l0.01276,-0.05321l0.86516,-0.50549l0.85922,-0.51553l0.05279,0.0144l1.16731,-0.34046l-0.22573,-0.90291v-2.875l0.06546,-0.26185l-0.02777,-0.26848l0.125,-0.875l0.22744,-0.55826l0.13077,-0.58846l0.125,-0.25l0.15421,-0.17992l0.02627,-0.07355l0.14237,-0.56949l0.11032,-0.06304l0.05075,-0.14209l0.22253,-0.33379l0.00319,-0.05739l0.47073,-0.40348l0.05355,-0.08033l0.26378,-0.2398l0.04,-0.20001l0.60004,-0.38184l0.52627,-0.47842l0.14229,0.00981l0.17281,-0.12961l0.31415,-0.13227l0.01393,-0.01194l0.0918,-0.10098l0.11704,-0.07803l0.03603,-0.03089l0.04118,-0.02059l0.18074,-0.1205l0.4717,-0.16846l0.42257,-0.26891l0.49717,-0.16572l0.29278,-0.14639l0.0209,-0.03657l0.10449,-0.02612l0.09346,-0.04673l0.84113,-0.18692l0.83592,-0.20898l0.10449,0l0.10514,-0.02336l0.03505,0.02336l1.31996,0l0.29614,-0.04936l0.10781,-0.02695l0.3887,-0.15548l0.7037,-0.09596l0.68901,-0.17225l0.6085,0l0.61117,-0.08731l0.26848,0.02777l0.76185,-0.19046h0.10449l0.10514,-0.02336l0.03505,0.02336h0.25532c0.63917,0 1.241,0.15991 1.76765,0.44191l0.10735,0.02684l0.02825,0.04944c0.49676,0.29318 0.92003,0.69763 1.23552,1.17905c0.23806,-0.04739 0.48424,-0.07224 0.73623,-0.07224zM240.1875,170.125l-0.25,0l-0.01388,0.00347l-0.20579,0.08384l-0.875,0.125l-0.26848,-0.02777l-0.26185,0.06546l-0.24084,0l-0.12204,0.01664l-0.22761,0.12139l-0.5,0.125l-0.15284,0l-0.14017,0.06094l-0.75,0.125l-0.31243,-0.02499l-0.30407,0.07602h-0.50355l0.27691,0.41537l-0.04008,0.18037l0.01672,0.02926l-0.038,0.06649l-0.3579,1.61056l-0.75,1.5l-0.25962,0.3029l-0.09448,0.20613v1.5081l0.02302,0.00403l0.29596,0.13154l0.05602,0.014l0.00834,0.0146l0.76468,0.33986l0.15192,0.11869l0.18558,0.0522l0.875,0.5l0.44986,0.43112l0.51178,0.3554l0.875,1l0.00899,0.01753l0.01606,0.0114l0.2704,0.31547l2.6759,0l2.77378,-0.1206l0.0577,-0.0577l0,-0.98869l-0.16602,-0.74709l-0.20898,-0.83592l0,-0.10449l-0.02336,-0.10514l0.02336,-0.03505v-5.00532l0.06546,-0.26185l-0.00311,-0.03008c-1.07691,-0.16204 -2.00383,-0.78202 -2.57613,-1.65532c-0.23806,0.04739 -0.48424,0.07224 -0.73623,0.07224z" fill="#ff0000" stroke="none" stroke-width="0.5" stroke-linecap="butt"/><path d="M240.4375,173.5c0,-0.27614 0.22386,-0.5 0.5,-0.5c0.27614,0 0.5,0.22386 0.5,0.5c0,0.27614 -0.22386,0.5 -0.5,0.5c-0.27614,0 -0.5,-0.22386 -0.5,-0.5z" fill="#000000" stroke="none" stroke-width="0.5" stroke-linecap="butt"/></g></g></svg>