<svg version="1.1" xmlns="http://www.w3.org/2000/svg" xmlns:xlink="http://www.w3.org/1999/xlink" width="130" height="68" viewBox="0,0,130,68"><g transform="translate(-318.5,-148)"><g data-paper-data="{&quot;isPaintingLayer&quot;:true}" fill-rule="nonzero" stroke-linecap="butt" stroke-linejoin="miter" stroke-miterlimit="10" stroke-dasharray="" stroke-dashoffset="0" style="mix-blend-mode: normal"><path d="M318.5,203c0,-13.02578 0,-32.22579 0,-40c0,-6.52744 8.834,-15 17,-15c14.98818,0 65.90608,0 94,0c11.36882,0 19,8.03592 19,18c0,12.16373 0,27.20089 0,34c0,6.86092 -7.61972,16 -19,16c-28.73059,0 -81.4294,0 -96,0c-7.34669,0 -15,-5.46772 -15,-13z" fill="#ff0000" stroke="none" stroke-width="0"/><text transform="translate(331.17417,169.84977) scale(0.41201,0.41201)" font-size="40" xml:space="preserve" fill="#ffffff" fill-rule="nonzero" stroke="#ffffff" stroke-width="2" stroke-linecap="butt" stroke-linejoin="miter" stroke-miterlimit="10" stroke-dasharray="" stroke-dashoffset="0" font-family="Sans Serif" font-weight="normal" text-anchor="start" style="mix-blend-mode: normal"><tspan x="0" dy="0">1000000 clicks</tspan></text><text transform="translate(343.38552,197.45499) scale(0.5,0.5)" font-size="40" xml:space="preserve" fill="#ffffff" fill-rule="nonzero" stroke="#ffffff" stroke-width="2" stroke-linecap="butt" stroke-linejoin="miter" stroke-miterlimit="10" stroke-dasharray="" stroke-dashoffset="0" font-family="Sans Serif" font-weight="normal" text-anchor="start" style="mix-blend-mode: normal"><tspan x="0" dy="0">300 cps</tspan></text></g></g></svg>